<svg id="add--photo" xmlns="http://www.w3.org/2000/svg" width="38.374" height="38.374" viewBox="0 0 38.374 38.374">
  <path id="패스_24" data-name="패스 24" d="M0,0H38.374V38.374H0Z" fill="none"/>
  <path id="패스_25" data-name="패스 25" d="M33.577,8.995H28.509L25.583,5.8H15.989v3.2h8.186l2.926,3.2h6.476V31.379H7.995V16.989H4.8v14.39a3.207,3.207,0,0,0,3.2,3.2H33.577a3.207,3.207,0,0,0,3.2-3.2V12.192A3.207,3.207,0,0,0,33.577,8.995ZM12.791,21.786a7.995,7.995,0,1,0,7.995-7.995A8,8,0,0,0,12.791,21.786Zm7.995-4.8a4.8,4.8,0,1,1-4.8,4.8A4.811,4.811,0,0,1,20.786,16.989ZM7.995,8.995h4.8V5.8h-4.8V1H4.8V5.8H0v3.2H4.8v4.8h3.2Z" transform="translate(0 0.599)"/>
</svg>
