<svg id="comment" xmlns="http://www.w3.org/2000/svg" width="24.012" height="22.711" viewBox="0 0 24.012 22.711">
  <path id="패스_11" data-name="패스 11" d="M20.755,16.7a13.381,13.381,0,0,0-8.786-2.817,13.36,13.36,0,0,0-8.6,2.739A9.2,9.2,0,0,0,.882,19.782,9.306,9.306,0,0,0,0,23.8a10.149,10.149,0,0,0,1.1,4.764,9.223,9.223,0,0,0,3.081,3.382c-.315,1.326-.758,3.221-.758,3.221a1.093,1.093,0,0,0-.03.264,1.158,1.158,0,0,0,.453.92h0a1.161,1.161,0,0,0,1.252.1l.017-.009.017-.01.6-.357c.547-.324,1.38-.816,2.124-1.254l1-.587c.278-.162.491-.286.571-.33l0,0,.005,0a4.9,4.9,0,0,1,2.525-.69,15.349,15.349,0,0,0,8.026-2,8.458,8.458,0,0,0,2.9-2.957,8.944,8.944,0,0,0,1.119-4.51A9.078,9.078,0,0,0,20.755,16.7Zm.571,10.66A6.4,6.4,0,0,1,19.72,29.2a9.765,9.765,0,0,1-3.54,1.685,16.464,16.464,0,0,1-4.212.52,6.722,6.722,0,0,0-3.412.923h0c-.147.082-.475.273-.908.526-.62.364-1.436.845-2.117,1.248.166-.708.359-1.528.5-2.13h0a1.421,1.421,0,0,0,.041-.333,1.125,1.125,0,0,0-.4-.874A1.479,1.479,0,0,0,5.4,30.58l-.055-.028-.006,0A7.455,7.455,0,0,1,2.7,27.726a8.339,8.339,0,0,1-.9-3.925,7.494,7.494,0,0,1,.707-3.245,7.8,7.8,0,0,1,3.461-3.513,12.671,12.671,0,0,1,5.994-1.357,11.594,11.594,0,0,1,7.619,2.39,7.257,7.257,0,0,1,2.618,5.668A7.137,7.137,0,0,1,21.325,27.357Z" transform="translate(0 -13.88)" fill="#4b4b4b"/>
  <path id="패스_12" data-name="패스 12" d="M106.965,197.171a1.382,1.382,0,1,0,1.383,1.383A1.383,1.383,0,0,0,106.965,197.171Z" transform="translate(-100.631 -188.575)" fill="#4b4b4b"/>
  <path id="패스_13" data-name="패스 13" d="M221.932,197.171a1.382,1.382,0,1,0,1.383,1.383A1.383,1.383,0,0,0,221.932,197.171Z" transform="translate(-210.206 -188.575)" fill="#4b4b4b"/>
  <path id="패스_14" data-name="패스 14" d="M336.9,197.171a1.382,1.382,0,1,0,1.383,1.383A1.383,1.383,0,0,0,336.9,197.171Z" transform="translate(-319.782 -188.575)" fill="#4b4b4b"/>
</svg>
