<svg xmlns="http://www.w3.org/2000/svg" width="383" height="80" viewBox="0 0 383 80"><path d="M.98,67.441h15.7V34.078H46.63V67.441H62.436V-9.1H46.63V22.027H16.676V-9.1H.98Zm76.931,0h49.408V55.278H93.606v-21.2H119.36V22.25H93.606V2.835h32.939V-9.1H77.911Zm82.126,1.227c18.68,0,27.854-8.927,27.854-23.879,0-14.171-7.185-19.3-19.564-22.651l-6.632-1.785c-7.185-1.9-9.616-4.24-9.616-9.6,0-5.8,4.2-8.927,11.938-8.927,8.511,0,14.7,2.12,19.785,3.905V-6.2c-4.421-2.232-10.169-4.129-20.78-4.129-17.464,0-25.975,9.038-25.975,22.2,0,14.171,6.964,19.527,17.906,22.428l6.853,1.785c8.069,2.12,10.611,4.352,10.611,10.377s-4.2,10.042-13.817,10.042a54.063,54.063,0,0,1-21.775-4.686V63.982C142.13,66.771,149.867,68.668,160.036,68.668Zm58.582,0c18.68,0,27.854-8.927,27.854-23.879,0-14.171-7.185-19.3-19.564-22.651l-6.632-1.785c-7.185-1.9-9.616-4.24-9.616-9.6,0-5.8,4.2-8.927,11.938-8.927,8.511,0,14.7,2.12,19.785,3.905V-6.2c-4.421-2.232-10.169-4.129-20.78-4.129-17.464,0-25.975,9.038-25.975,22.2,0,14.171,6.964,19.527,17.906,22.428l6.853,1.785C228.456,38.206,231,40.438,231,46.463s-4.2,10.042-13.817,10.042a54.063,54.063,0,0,1-21.775-4.686V63.982C200.712,66.771,208.449,68.668,218.618,68.668Zm39.018-1.227h49.408V55.278H273.332v-21.2h25.754V22.25H273.332V2.835h32.939V-9.1H257.636Zm62.561,0h26.086c24.207,0,36.7-13.055,36.7-37.938V27.271C382.98,1.942,369.606-9.1,346.173-9.1H320.2Zm15.7-12.162V2.835H345.4c13.374,0,21,5.579,21,24.213v3.794c0,17.742-6.3,24.436-20.117,24.436Z" transform="translate(-0.48 10.832)" fill="#1f7b37" stroke="rgba(0,0,0,0)" stroke-width="1"/></svg>