<svg xmlns="http://www.w3.org/2000/svg" width="18" height="18" viewBox="0 0 18 18"><g transform="translate(-1182 -563)"><path d="M3,11h8V3H3ZM5,5H9V9H5Z" transform="translate(1179 560)" fill="#181818"/><path d="M3,21h8V13H3Zm2-6H9v4H5Z" transform="translate(1179 560)" fill="#181818"/><path d="M13,3v8h8V3Zm6,6H15V5h4Z" transform="translate(1179 560)" fill="#181818"/><rect width="2" height="2" transform="translate(1198 579)" fill="#181818"/><rect width="2" height="2" transform="translate(1192 573)" fill="#181818"/><rect width="2" height="2" transform="translate(1194 575)" fill="#181818"/><rect width="2" height="2" transform="translate(1192 577)" fill="#181818"/><rect width="2" height="2" transform="translate(1194 579)" fill="#181818"/><rect width="2" height="2" transform="translate(1196 577)" fill="#181818"/><rect width="2" height="2" transform="translate(1196 573)" fill="#181818"/><rect width="2" height="2" transform="translate(1198 575)" fill="#181818"/></g></svg>