<svg xmlns="http://www.w3.org/2000/svg" width="19" height="19" viewBox="0 0 19 19"><g transform="translate(0.5 0.5)"><g transform="translate(-1132 -561)"><g transform="translate(-46 -6)"><path d="M3,11h8V3H3ZM5,5H9V9H5Z" transform="translate(1175 564)" fill="none" stroke="#181818" stroke-width="1"/><path d="M3,21h8V13H3Zm2-6H9v4H5Z" transform="translate(1175 564)" fill="none" stroke="#181818" stroke-width="1"/><path d="M13,3v8h8V3Zm6,6H15V5h4Z" transform="translate(1175 564)" fill="none" stroke="#181818" stroke-width="1"/><rect width="2" height="2" transform="translate(1194 583)" fill="none" stroke="#181818" stroke-width="1"/><rect width="2" height="2" transform="translate(1188 577)" fill="none" stroke="#181818" stroke-width="1"/><rect width="2" height="2" transform="translate(1190 579)" fill="none" stroke="#181818" stroke-width="1"/><rect width="2" height="2" transform="translate(1188 581)" fill="none" stroke="#181818" stroke-width="1"/><rect width="2" height="2" transform="translate(1190 583)" fill="none" stroke="#181818" stroke-width="1"/><rect width="2" height="2" transform="translate(1192 581)" fill="none" stroke="#181818" stroke-width="1"/><rect width="2" height="2" transform="translate(1192 577)" fill="none" stroke="#181818" stroke-width="1"/><rect width="2" height="2" transform="translate(1194 579)" fill="none" stroke="#181818" stroke-width="1"/></g></g></g></svg>