<svg xmlns="http://www.w3.org/2000/svg" width="339.467" height="309.273" viewBox="0 0 339.467 309.273">
  <g id="シンプルなフォルダアイコン2" transform="translate(0 -22.771)">
    <path id="패스_4" data-name="패스 4" d="M326.511,92.986A44.178,44.178,0,0,0,295.23,80.03H165.7a10.854,10.854,0,0,1-10.847-10.848V67.008a44.235,44.235,0,0,0-44.237-44.237H44.237A44.235,44.235,0,0,0,0,67.008v220.8a44.235,44.235,0,0,0,44.237,44.232H295.23a44.235,44.235,0,0,0,44.237-44.232V124.268A44.163,44.163,0,0,0,326.511,92.986ZM306.077,287.811a10.836,10.836,0,0,1-10.848,10.842H44.237A10.835,10.835,0,0,1,33.39,287.811V67.008A10.845,10.845,0,0,1,44.238,56.161h66.373a10.845,10.845,0,0,1,10.847,10.848v2.173A44.235,44.235,0,0,0,165.7,113.419H295.23a10.847,10.847,0,0,1,10.847,10.848Z" transform="translate(0 0)" fill="#4b4b4b"/>
  </g>
</svg>
